Coordinates
version=1
nRows=8
nColumns=36
inDegrees=yes

Units are S.I. units (second, meters, Newtons, ...)
If the header above contains a line with 'inDegrees', this indicates whether rotational values are in degrees (yes) or radians (no).

endheader
time	pelvis_tilt	pelvis_list	pelvis_rotation	pelvis_tx	pelvis_ty	pelvis_tz	hip_flexion_r	hip_adduction_r	hip_rotation_r	knee_angle_r	knee_angle_r_beta	ankle_angle_r	subtalar_angle_r	mtp_angle_r	hip_flexion_l	hip_adduction_l	hip_rotation_l	knee_angle_l	knee_angle_l_beta	ankle_angle_l	subtalar_angle_l	mtp_angle_l	lumbar_extension	lumbar_bending	lumbar_rotation	arm_flex_r	arm_add_r	arm_rot_r	elbow_flex_r	pro_sup_r	arm_flex_l	arm_add_l	arm_rot_l	elbow_flex_l	pro_sup_l
      2.96666670	    -19.62397065	      2.43191976	      3.37980582	      0.41211197	      1.04221095	     -0.03820915	     28.34074946	    -15.51072794	    -15.23969317	     17.50060297	      0.30544314	    -16.64995581	     -0.40178907	     -7.49999987	     29.24750980	     -6.73468693	    -14.24356144	     17.29934550	      0.30193054	    -18.96614453	      3.09817244	     -7.49999987	     -4.93208990	     -0.86875206	      0.52398452	    162.29997536	     -1.35442808	     30.98231103	     65.63827602	     91.26173054	    163.24078303	      1.37011124	     33.43137866	     65.14929225	     84.87587645
      2.97083330	    -20.21316232	      2.49852563	      3.35337514	      0.41562907	      1.05173165	     -0.04182492	     27.34984597	    -15.37803072	    -17.01943784	     14.34216072	      0.25031793	    -20.09173744	      1.48694363	     -7.49999987	     28.11971008	     -6.18582805	    -13.96707893	     13.68539956	      0.23885528	    -22.62317267	      3.98971863	     -7.49999987	     -3.63750651	     -0.77683617	      0.63736480	    163.68424031	     -0.85584202	     31.46100344	     64.15214094	     91.79837788	    164.68596777	      0.94919142	     33.65717488	     64.71767144	     85.85503537
      2.97500000	    -20.56427058	      2.53594280	      3.46439496	      0.42416120	      1.06488949	     -0.04340175	     25.87657189	    -15.20556752	    -18.79499679	     10.99008803	      0.19181322	    -23.69283085	      3.45307735	     -7.49999987	     26.78692125	     -5.66149339	    -13.70380924	     10.31372282	      0.18000842	    -26.27914584	      4.82701489	     -7.49999987	     -2.42152202	     -0.77045317	      0.56904438	    165.06866110	     -0.32546629	     32.01728816	     62.58354875	     91.84044843	    165.88470895	      0.72703137	     33.40534753	     63.90231865	     86.48914050
      2.97916670	    -20.83249636	      2.54615935	      3.71184870	      0.42727052	      1.08112534	     -0.03997128	     24.32809611	    -14.67476631	    -20.68168580	      7.64298047	      0.13339517	    -27.41809607	      5.25259696	     -7.49999987	     25.53836760	     -5.35306227	    -14.01483961	      6.92470065	      0.12085883	    -30.59717579	      5.77631899	     -7.49999987	     -1.41089854	     -0.78674858	      0.55894007	    165.96313465	     -0.01375851	     32.89766847	     61.80910426	     90.91676030	    166.69351427	      0.14736594	     33.15128704	     63.62535405	     86.18454649
      2.98333330	    -21.09865173	      2.42353567	      4.01925134	      0.42999490	      1.08922328	     -0.03927228	     23.16143656	    -14.06316005	    -21.92452950	      4.87220910	      0.08503609	    -30.30753812	      6.31241248	     -7.49999987	     24.69964547	     -5.24783293	    -15.10109565	      4.21707320	      0.07360181	    -33.79866646	      5.96858137	     -7.49999987	     -0.40030724	     -0.82406038	      0.68110254	    166.92427436	      0.22964276	     33.61643241	     60.39336975	     91.30870361	    167.00319925	     -0.22067605	     32.75195056	     62.99609972	     89.57028926
      2.98750000	    -21.31548855	      2.38212557	      4.50401531	      0.43462051	      1.10304243	     -0.04001320	     22.09512876	    -13.65101740	    -22.57241427	      2.67320477	      0.04665622	    -31.66176674	      7.19634237	     -7.49999987	     23.82416075	     -4.98154365	    -16.01471254	      1.87298399	      0.03268974	    -35.38398157	      6.34709280	     -7.49999987	      0.51662041	     -1.02373613	      0.41761587	    167.75448210	      0.17669819	     34.03150418	     59.33996527	     89.75101975	    167.41757766	     -0.54159721	     33.23552191	     62.58521022	     88.17359201
      2.99166670	    -21.66343221	      2.09600750	      4.90361327	      0.43671842	      1.11501939	     -0.04114064	     21.56289960	    -13.11275096	    -22.44538345	      1.25049141	      0.02182519	    -31.61734522	      7.92934586	     -7.49999987	     23.58991063	     -5.02749940	    -17.09439823	      0.57026092	      0.00995293	    -34.86441814	      6.75639124	     -7.49999987	      1.54656149	     -0.78324400	      0.17685542	    168.17411971	     -0.13783154	     34.05735256	     58.26970586	     91.80983349	    167.69501072	     -1.03638122	     33.02038910	     62.23704516	     91.71740699
      2.99583330	    -22.08195812	      1.89729068	      5.23589002	      0.43772881	      1.12414410	     -0.03857621	     21.43190238	    -12.71438011	    -22.03237020	      0.51775910	      0.00903660	    -30.42614908	      8.44254692	     -7.49999987	     23.80133133	     -5.13385189	    -17.64513885	      0.31720516	      0.00553627	    -33.16928458	      6.42158262	     -7.49999987	      2.67136972	     -0.75488899	      0.09730135	    168.36660067	     -0.65370956	     34.20664455	     57.38638362	     91.25546546	    167.97247898	     -1.33353218	     33.55781580	     61.44115720	     91.22433365
